<?xml version="1.0" encoding="UTF-8"?>
<svg id="Livello_1" xmlns="http://www.w3.org/2000/svg" viewBox="0 0 271.72 266.69">
  <defs>
    <style>
      .cls-1 {
        fill: #2b6280;
      }

      .cls-2 {
        fill: #c1ebee;
      }

      .cls-3 {
        fill: #f7fcff;
      }
    </style>
  </defs>
  <path class="cls-1" d="M248.45,58.07c6.29-6.18,12.9-12.08,18.81-18.61,6.6-7.29,5.69-16.23-1.54-23.13-5.54-5.29-16.43-7.07-23.03-.35-6.17,6.28-12.93,12-19.75,18.26.55.4-.15-.01-.74-.54-51.41-46.92-127.89-42.75-176.72-.5-59.7,51.68-60.83,146.88-2.19,200.3,22,20.04,48.35,30.38,77.74,32.66,41.17,3.2,77.91-7.99,106.85-38.15,35.37-36.88,44.84-81.32,32.94-130.35-3.1-12.78-9.01-24.88-13.89-37.98,0,0,.73-.84,1.52-1.61ZM220.67,47.67c5.76.07,9.44,2.99,11.73,7.82,2.34,4.92,2.06,9.69-2.02,13.8-12.44,12.54-24.85,25.09-37.29,37.62-17.94,18.09-35.89,36.18-53.87,54.24-1.99,2-4.03,4-6.27,5.7-5.82,4.4-12.52,4.61-17.8-.42-12.54-11.95-24.85-24.14-36.88-36.6-5.25-5.44-4.69-11.69.38-17.5,4.45-5.1,11.34-6.39,17.09-2.2,5.22,3.8,9.81,8.48,14.49,12.96,4.91,4.67,9.61,9.58,14.4,14.37,12.12-11.79,24.16-23.22,35.9-34.95,16.02-16.01,31.82-32.26,47.71-48.41,3.44-3.49,7-6.5,12.43-6.43ZM237.9,141.08c-1.25,2.66-3.04,5.24-5.13,7.29-28.19,27.65-56.45,55.22-84.75,82.75-10.63,10.35-22.5,10.58-33.06.31-27.7-26.94-55.29-54-82.72-81.22-3.32-3.3-6.25-7.56-7.81-11.93-2.9-8.08.54-15,6.36-20.71,18.44-18.08,36.98-36.06,55.41-54.15,9.63-9.45,19-19.16,28.68-28.56,10.97-10.64,21.93-10.45,32.82.23,6.17,6.05,12.39,12.04,18.77,18.23-4.5,5-8.24,9.16-12.79,14.21-4.89-5.29-8.76-9.84-13.03-13.98-6.59-6.41-12.09-6.45-18.66-.01-24.06,23.53-48.05,47.13-71.96,70.8-6.32,6.27-6.26,11.46.45,18.12,20.81,20.66,41.79,41.14,62.71,61.67,3.57,3.5,7.06,7.09,10.81,10.38,3.9,3.43,8.56,3.76,12.83.76,3.11-2.19,5.89-4.87,8.62-7.54,21.94-21.41,43.74-42.97,65.8-64.24,5.34-5.16,8.44-10.11,4.37-17.44-2.14-3.83,1.56-5.76,3.58-7.83,3.05-3.11,6.87-3.87,10.99-1.83,8.21,4.06,11.95,15.62,7.71,24.69Z"/>
  <path class="cls-3" d="M237.9,141.08c-1.25,2.66-3.04,5.24-5.13,7.29-28.19,27.65-56.45,55.22-84.75,82.75-10.63,10.35-22.5,10.58-33.06.31-27.7-26.94-55.29-54-82.72-81.22-3.32-3.3-6.25-7.56-7.81-11.93-2.9-8.08.54-15,6.36-20.71,18.44-18.08,36.98-36.06,55.41-54.15,9.63-9.45,19-19.16,28.68-28.56,10.97-10.64,21.93-10.45,32.82.23,6.17,6.05,12.39,12.04,18.77,18.23-4.5,5-8.24,9.16-12.79,14.21-4.89-5.29-8.76-9.84-13.03-13.98-6.59-6.41-12.09-6.45-18.66-.01-24.06,23.53-48.05,47.13-71.96,70.8-6.32,6.27-6.26,11.46.45,18.12,20.81,20.66,41.79,41.14,62.71,61.67,3.57,3.5,7.06,7.09,10.81,10.38,3.9,3.43,8.56,3.76,12.83.76,3.11-2.19,5.89-4.87,8.62-7.54,21.94-21.41,43.74-42.97,65.8-64.24,5.34-5.16,8.44-10.11,4.37-17.44-2.14-3.83,1.56-5.76,3.58-7.83,3.05-3.11,6.87-3.87,10.99-1.83,8.21,4.06,11.95,15.62,7.71,24.69Z"/>
  <path class="cls-2" d="M230.38,69.29c-12.44,12.54-24.85,25.09-37.29,37.62-17.94,18.09-35.89,36.18-53.87,54.24-1.99,2-4.03,4-6.27,5.7-5.82,4.4-12.52,4.61-17.8-.42-12.54-11.95-24.85-24.14-36.88-36.6-5.25-5.44-4.69-11.69.38-17.5,4.45-5.1,11.34-6.39,17.09-2.2,5.22,3.8,9.81,8.48,14.49,12.96,4.91,4.67,9.61,9.58,14.4,14.37-.02.01-.04.03-.06.05.07.02.13.04.17.05-.01,0-.02-.01-.03-.02l-.08-.08c12.12-11.79,24.16-23.22,35.9-34.95,16.02-16.01,31.82-32.26,47.71-48.41,3.44-3.49,7-6.5,12.43-6.43,5.76.07,9.44,2.99,11.73,7.82,2.34,4.92,2.06,9.69-2.02,13.8Z"/>
</svg>