<svg xmlns="http://www.w3.org/2000/svg" xmlns:xlink="http://www.w3.org/1999/xlink" version="1.1" viewBox="0 0 271.7 271.7">
  <defs>
    <style>
      .cls-1 {
        fill: url(#Sfumatura_senza_nome_33);
      }

      .cls-2 {
        fill: #fff;
      }

      .cls-3 {
        fill: #c1ebee;
      }
    </style>
    <linearGradient id="Sfumatura_senza_nome_33" data-name="Sfumatura senza nome 33" x1="17.5" y1="254.2" x2="254.2" y2="17.5" gradientUnits="userSpaceOnUse">
      <stop offset=".2" stop-color="#2b6280"/>
      <stop offset=".4" stop-color="#316a88"/>
      <stop offset=".5" stop-color="#44809f"/>
      <stop offset=".8" stop-color="#63a5c5"/>
      <stop offset="1" stop-color="#8cd5f7"/>
    </linearGradient>
  </defs>
  <!-- Generator: Adobe Illustrator 28.7.1, SVG Export Plug-In . SVG Version: 1.2.0 Build 142)  -->
  <g>
    <g id="Livello_1">
      <rect class="cls-1" width="271.7" height="271.7" rx="59.8" ry="59.8"/>
      <g>
        <path class="cls-3" d="M221.1,142.4c-1,2.1-2.4,4.2-4.1,5.9-22.6,22.1-45.2,44.2-67.9,66.2-8.5,8.3-18,8.4-26.4.2-22.1-21.6-44.3-43.2-66.2-65-2.6-2.6-5-6-6.3-9.6-2.3-6.4.4-12,5.1-16.6,14.8-14.5,29.6-28.8,44.4-43.3,7.7-7.6,15.2-15.4,23-22.9,8.8-8.5,17.5-8.3,26.3.2,3.3,3.2,6.6,6.5,9.9,9.7s3,7.2.4,10.2,0,0,0,.1c-2.9,3.2-8,3.3-10.9,0s-3.3-3.5-4.9-5.2c-5.3-5.1-9.7-5.1-15,0-19.3,18.8-38.4,37.7-57.6,56.7-5,5-5,9.2.3,14.5,16.7,16.5,33.5,32.9,50.2,49.3,2.9,2.8,5.6,5.7,8.7,8.3,3.1,2.7,6.9,3,10.2.6,2.5-1.7,4.7-3.9,6.9-6,17.6-17.1,35-34.4,52.6-51.4,4.3-4.1,6.8-8.1,3.5-14-1.7-3.1,1.2-4.6,2.9-6.3,2.5-2.5,5.5-3.1,8.8-1.5,6.6,3.2,9.6,12.5,6.2,19.8h0Z"/>
        <path class="cls-2" d="M215.1,85c-9.9,10-19.9,20.1-29.8,30.1-14.4,14.5-28.8,28.9-43.1,43.4-1.6,1.6-3.2,3.2-5,4.5-4.6,3.6-10,3.7-14.2-.3-10-9.6-19.9-19.3-29.5-29.3-4.2-4.4-3.7-9.3.3-14,3.6-4,9.1-5.1,13.7-1.7,4.2,3.1,7.9,6.8,11.6,10.4,4,3.7,7.7,7.7,11.5,11.5h.2c9.7-9.5,19.3-18.7,28.8-28,12.8-12.8,25.5-25.8,38.2-38.8,2.7-2.8,5.6-5.2,9.9-5.1,4.6,0,7.5,2.4,9.4,6.3,1.9,4,1.7,7.8-1.7,11.1h-.2Z"/>
      </g>
    </g>
  </g>
</svg>