<?xml version="1.0" encoding="UTF-8"?>
<svg id="Livello_1" data-name="Livello 1" xmlns="http://www.w3.org/2000/svg" viewBox="0 0 265.37 260.03">
  <defs>
    <style>
      .cls-1 {
        fill: #fff;
      }

      .cls-2 {
        fill: #c1ebee;
      }
    </style>
  </defs>
  <g id="Livello_1-2" data-name="Livello 1">
    <g>
      <path class="cls-2" d="M263.05,139.96c-1.53,3.22-3.68,6.43-6.28,9.04-34.62,33.85-69.23,67.7-104,101.4-13.02,12.71-27.57,12.87-40.44.31-33.85-33.09-67.86-66.17-101.4-99.56-3.98-3.98-7.66-9.19-9.65-14.7-3.52-9.8.61-18.38,7.81-25.43,22.67-22.21,45.34-44.11,68.01-66.32,11.79-11.64,23.28-23.59,35.23-35.08,13.48-13.02,26.81-12.71,40.28.31,5.05,4.9,10.11,9.96,15.16,14.86,5.05,4.9,4.6,11.03.61,15.62s0,0,0,.15c-4.44,4.9-12.25,5.05-16.7,0s-5.05-5.36-7.51-7.96c-8.12-7.81-14.86-7.81-22.98,0-29.56,28.8-58.82,57.75-88.23,86.85-7.66,7.66-7.66,14.09.46,22.21,25.58,25.27,51.31,50.39,76.89,75.51,4.44,4.29,8.58,8.73,13.33,12.71,4.75,4.14,10.57,4.6,15.62.92,3.83-2.6,7.2-5.97,10.57-9.19,26.96-26.19,53.61-52.69,80.57-78.73,6.59-6.28,10.42-12.41,5.36-21.44-2.6-4.75,1.84-7.05,4.44-9.65,3.83-3.83,8.42-4.75,13.48-2.3,10.11,4.9,14.7,19.15,9.5,30.33h0l-.15.15Z"/>
      <path class="cls-1" d="M253.86,52.04c-15.16,15.32-30.48,30.79-45.65,46.11-22.06,22.21-44.11,44.27-66.02,66.48-2.45,2.45-4.9,4.9-7.66,6.89-7.05,5.51-15.32,5.67-21.75-.46-15.32-14.7-30.48-29.56-45.19-44.88-6.43-6.74-5.67-14.25.46-21.44,5.51-6.13,13.94-7.81,20.98-2.6,6.43,4.75,12.1,10.42,17.77,15.93,6.13,5.67,11.79,11.79,17.61,17.61h.31c14.86-14.55,29.56-28.64,44.11-42.89,19.61-19.61,39.06-39.52,58.51-59.43,4.14-4.29,8.58-7.96,15.16-7.81,7.05,0,11.49,3.68,14.4,9.65,2.91,6.13,2.6,11.95-2.6,17h-.31l-.15-.15Z"/>
    </g>
  </g>
</svg>